<?xml version="1.0" standalone="no"?>
<!DOCTYPE svg PUBLIC "-//W3C//DTD SVG 20010904//EN"
 "http://www.w3.org/TR/2001/REC-SVG-20010904/DTD/svg10.dtd">
<svg version="1.0" role="img" aria-labelledby="title" xmlns="http://www.w3.org/2000/svg"
 width="1448.000000pt" height="1086.000000pt" viewBox="0 0 1448.000000 1086.000000"
 preserveAspectRatio="xMidYMid meet">
<title id="title">TL Agent — Code. Reason. Act</title>
<rect width="1448" height="1086" fill="#ffffff"/>

<g transform="translate(0.000000,1086.000000) scale(0.100000,-0.100000)"
fill="#000000" stroke="none">
<path fill="#212E4E" d="M4710 8891 c-85 -18 -152 -76 -175 -155 -18 -60 -21 -486 -4 -564 13
-61 66 -127 123 -153 38 -17 78 -19 574 -19 l532 0 0 -1415 c0 -980 3 -1430
11 -1465 15 -68 72 -140 140 -174 l53 -26 464 0 464 0 -57 46 c-127 104 -257
310 -306 489 -21 74 -23 106 -27 433 -3 319 -5 354 -20 359 -111 37 -215 114
-272 203 -88 136 -96 332 -20 480 47 93 152 185 251 221 l59 22 0 131 c0 159
11 230 52 344 87 239 287 421 543 493 80 23 84 23 1028 28 l949 6 24 28 c26
31 31 79 11 112 -7 12 -127 133 -267 271 -223 218 -263 253 -320 279 l-65 30
-1855 1 c-1020 1 -1871 -1 -1890 -5z"/>
<path fill="#008036" d="M7350 7920 c-194 -7 -227 -14 -324 -61 -83 -41 -148 -99 -201 -179
-75 -113 -87 -160 -93 -346 l-4 -161 47 -17 c75 -25 128 -60 189 -126 99 -108
131 -199 124 -352 -5 -91 -8 -105 -46 -182 -60 -121 -158 -204 -295 -250 -17
-6 -18 -24 -15 -348 l3 -343 28 -79 c39 -111 98 -206 181 -293 110 -117 214
-181 373 -230 l88 -28 842 -3 842 -3 3 -149 c3 -141 4 -150 27 -174 14 -15 42
-32 63 -38 50 -15 78 -2 183 88 44 38 204 174 355 303 151 128 285 245 298
258 25 27 30 94 11 137 -6 13 -50 58 -98 98 -317 272 -640 546 -661 561 -41
29 -95 22 -138 -17 l-37 -34 -3 -151 -3 -151 -615 0 c-410 0 -630 4 -658 11
-56 14 -114 62 -137 113 -18 39 -19 91 -19 1094 l0 1052 -42 0 c-24 0 -52 2
-63 3 -11 2 -103 1 -205 -3z"/>
<path fill="#008036" d="M6553 6970 c-80 -19 -161 -91 -189 -169 -18 -49 -17 -154 1 -197 25
-60 73 -112 130 -140 48 -23 64 -26 134 -23 73 4 83 7 137 44 82 58 119 126
118 220 0 52 -6 81 -23 113 -61 118 -188 181 -308 152z"/>
<path d="M3600 3895 l0 -105 165 0 165 0 2 -462 3 -463 135 0 135 0 3 463 2
462 170 0 170 0 0 105 0 105 -475 0 -475 0 0 -105z"/>
<path d="M4770 3430 l0 -570 373 2 372 3 3 108 3 107 -241 0 -240 0 0 460 0
460 -135 0 -135 0 0 -570z"/>
<path d="M6387 3436 c-114 -310 -207 -566 -207 -570 0 -3 65 -6 145 -6 l144 0
34 108 33 107 188 0 188 0 33 -105 33 -105 147 -3 c123 -2 146 0 143 12 -2 8
-95 264 -208 570 l-205 556 -131 0 -131 0 -206 -564z m398 50 c30 -98 55 -182
55 -187 0 -5 -53 -9 -119 -9 l-120 0 14 43 c8 23 35 109 60 190 26 82 48 147
51 145 2 -2 28 -84 59 -182z"/>
<path d="M10480 3815 l0 -105 -55 0 -55 0 0 -95 0 -95 55 0 55 0 0 -242 c0
-141 5 -259 11 -281 14 -52 71 -112 125 -133 47 -18 150 -23 227 -11 l47 8 0
93 0 94 -60 4 c-33 2 -66 10 -73 17 -9 8 -13 74 -15 231 l-3 220 70 0 71 0 0
95 0 95 -70 0 -70 0 0 105 0 105 -130 0 -130 0 0 -105z"/>
<path d="M7670 3711 c-94 -29 -185 -115 -220 -208 -88 -235 -18 -526 147 -616
104 -56 207 -56 298 -1 l55 33 0 -27 c0 -88 -55 -156 -136 -168 -63 -9 -143
10 -190 46 -22 16 -42 30 -45 30 -3 0 -28 -33 -57 -74 l-51 -73 27 -26 c34
-33 115 -73 172 -86 25 -6 81 -11 125 -11 195 0 339 82 397 229 22 55 22 63
23 501 l0 445 -120 0 -120 0 -3 -32 c-2 -18 -5 -33 -8 -33 -3 0 -22 13 -42 29
-20 16 -52 34 -71 40 -38 12 -143 13 -181 2z m230 -213 l45 -23 0 -190 0 -189
-34 -23 c-24 -16 -48 -23 -84 -23 -44 0 -54 4 -87 38 -50 49 -64 102 -58 218
6 109 32 169 88 196 46 24 77 23 130 -4z"/>
<path d="M8703 3700 c-108 -35 -189 -114 -234 -227 -20 -50 -23 -76 -24 -193
0 -131 1 -137 32 -202 17 -37 52 -88 78 -113 150 -151 448 -160 604 -20 22 21
41 42 41 47 0 6 -23 38 -52 72 -29 33 -53 63 -54 65 -2 1 -18 -9 -36 -23 -75
-57 -183 -74 -255 -40 -39 19 -78 66 -88 107 l-7 27 261 0 261 0 0 79 c0 207
-71 341 -215 408 -82 37 -219 43 -312 13z m221 -205 c28 -19 46 -56 46 -95 l0
-30 -131 0 -131 0 6 33 c19 96 129 145 210 92z"/>
<path d="M9819 3704 c-25 -7 -67 -32 -92 -54 l-46 -41 -3 48 -3 48 -122 3
-123 3 0 -426 0 -425 130 0 130 0 0 299 0 299 30 26 c57 48 146 44 184 -8 20
-26 21 -42 24 -322 l3 -294 130 0 129 0 0 300 c0 377 -12 439 -96 508 -62 51
-178 66 -275 36z"/>
<path d="M5380 2375 l0 -76 -32 17 c-20 10 -43 14 -66 10 -65 -10 -102 -64
-102 -151 0 -65 19 -116 51 -139 28 -19 101 -21 130 -3 17 10 23 10 26 0 3 -7
13 -13 24 -13 18 0 19 10 19 215 l0 215 -25 0 c-24 0 -25 -2 -25 -75z m-17
-113 c13 -12 17 -31 17 -93 0 -69 -2 -80 -22 -93 -30 -21 -71 -20 -99 3 -18
14 -23 30 -26 77 -4 67 9 102 47 121 28 14 56 9 83 -15z"/>
<path d="M4370 2408 c-52 -36 -74 -88 -74 -177 0 -95 15 -141 60 -181 31 -26
42 -30 95 -30 75 0 112 20 139 75 26 53 25 55 -10 55 -24 0 -30 -4 -30 -20 0
-12 -11 -32 -25 -45 -35 -36 -94 -34 -137 4 -32 28 -33 33 -37 116 -3 95 7
134 47 165 49 39 130 18 146 -38 7 -26 14 -32 37 -32 26 0 27 2 20 28 -21 72
-64 102 -144 102 -40 0 -63 -6 -87 -22z"/>
<path d="M6540 2225 l0 -205 25 0 c24 0 24 2 27 83 l3 82 42 3 c40 3 44 1 68
-37 14 -23 35 -61 47 -86 18 -37 27 -45 50 -45 15 0 28 2 28 5 0 3 -20 41 -45
86 l-45 81 35 33 c31 29 35 38 35 82 0 92 -48 123 -192 123 l-78 0 0 -205z
m162 155 c42 -12 58 -34 58 -79 0 -46 -39 -71 -111 -71 l-59 0 0 73 c0 41 3
77 7 80 10 10 63 8 105 -3z"/>
<path d="M9573 2243 c-39 -103 -75 -196 -78 -205 -6 -15 -2 -18 22 -18 27 0
31 5 47 55 l17 56 86 -3 86 -3 20 -52 c17 -46 23 -53 47 -53 l27 0 -77 203
c-69 180 -80 202 -101 205 -23 3 -29 -9 -96 -185z m131 19 l34 -92 -70 0 c-52
0 -69 3 -66 13 3 6 18 49 34 94 16 45 30 81 31 79 2 -1 18 -44 37 -94z"/>
<path d="M10398 2363 c-3 -33 -7 -38 -30 -41 -20 -2 -28 -9 -28 -23 0 -14 7
-19 30 -19 l30 0 0 -113 c0 -130 9 -147 73 -147 30 0 37 4 37 19 0 14 -8 21
-27 23 l-28 3 -3 108 -3 107 31 0 c23 0 30 4 30 20 0 16 -7 20 -30 20 -28 0
-30 2 -30 40 0 36 -3 40 -24 40 -21 0 -25 -5 -28 -37z"/>
<path d="M4834 2316 c-47 -21 -74 -72 -74 -140 0 -102 47 -156 135 -156 86 0
135 56 135 156 0 114 -97 183 -196 140z m90 -36 c63 -24 76 -149 21 -203 -23
-23 -80 -22 -105 3 -42 42 -40 149 5 187 29 25 42 28 79 13z"/>
<path d="M5671 2312 c-46 -25 -71 -74 -71 -140 0 -100 46 -152 135 -152 49 0
99 20 108 44 8 21 -21 28 -46 11 -22 -15 -73 -20 -102 -9 -18 7 -45 54 -45 79
0 12 16 15 100 15 l100 0 0 36 c0 105 -91 163 -179 116z m104 -47 c14 -13 25
-33 25 -45 0 -18 -6 -20 -75 -20 -86 0 -95 11 -46 61 36 35 64 37 96 4z"/>
<path d="M7031 2312 c-46 -25 -71 -74 -71 -140 0 -100 46 -152 135 -152 49 0
99 20 108 44 8 21 -21 28 -46 11 -22 -15 -73 -20 -102 -9 -18 7 -45 54 -45 79
0 12 16 15 100 15 l100 0 0 36 c0 105 -91 163 -179 116z m104 -47 c14 -13 25
-33 25 -45 0 -18 -6 -20 -75 -20 -86 0 -95 11 -46 61 36 35 64 37 96 4z"/>
<path d="M7425 2315 c-33 -17 -55 -42 -55 -62 0 -22 37 -15 64 12 14 14 37 25
51 25 32 0 67 -35 63 -63 -3 -19 -11 -23 -63 -27 -73 -7 -98 -20 -115 -59 -26
-65 15 -121 90 -121 25 0 55 7 67 15 19 13 22 13 27 0 3 -8 16 -15 28 -15 23
0 23 1 20 112 -2 62 -8 126 -14 142 -20 50 -103 71 -163 41z m125 -179 c0 -61
-78 -99 -122 -59 -45 41 0 90 85 92 36 1 37 0 37 -33z"/>
<path d="M7823 2310 c-54 -33 -57 -107 -5 -134 15 -8 45 -18 66 -22 37 -6 76
-34 76 -53 0 -21 -34 -41 -70 -41 -29 0 -43 6 -58 25 -22 28 -62 34 -62 9 0
-8 13 -29 29 -45 26 -26 36 -29 91 -29 55 0 65 3 91 29 54 54 26 118 -62 141
-69 17 -89 28 -89 49 0 22 35 51 63 51 10 0 29 -11 43 -25 14 -14 34 -25 45
-25 32 0 20 40 -20 67 -42 28 -95 30 -138 3z"/>
<path d="M8234 2316 c-47 -21 -74 -72 -74 -140 0 -102 47 -156 135 -156 86 0
135 56 135 156 0 114 -97 183 -196 140z m90 -36 c63 -24 76 -149 21 -203 -23
-23 -80 -22 -105 3 -42 42 -40 149 5 187 29 25 42 28 79 13z"/>
<path d="M8673 2310 c-27 -16 -33 -17 -33 -5 0 9 -10 15 -25 15 l-25 0 0 -150
0 -150 25 0 25 0 0 104 c0 57 3 112 6 121 10 24 60 46 90 39 36 -9 44 -39 44
-160 l0 -104 25 0 25 0 0 110 c0 126 -14 174 -55 190 -39 15 -66 12 -102 -10z"/>
<path d="M10043 2310 c-44 -26 -63 -68 -63 -135 0 -105 44 -155 136 -155 39 0
51 5 80 34 19 19 34 39 34 45 0 21 -42 11 -62 -14 -15 -19 -29 -25 -58 -25
-56 0 -80 34 -80 112 0 52 3 63 29 89 16 16 38 29 49 29 24 0 72 -37 72 -56 0
-8 10 -14 25 -14 29 0 31 10 10 50 -30 58 -112 77 -172 40z"/>
<path d="M6026 2084 c-9 -8 -16 -19 -16 -24 0 -11 29 -40 40 -40 11 0 40 29
40 40 0 11 -29 40 -40 40 -5 0 -16 -7 -24 -16z"/>
<path d="M9026 2084 c-9 -8 -16 -19 -16 -24 0 -11 29 -40 40 -40 11 0 40 29
40 40 0 11 -29 40 -40 40 -5 0 -16 -7 -24 -16z"/>
</g>
</svg>
